<svg width="1275" height="830" xmlns="http://www.w3.org/2000/svg" xmlns:xlink="http://www.w3.org/1999/xlink" xml:space="preserve" overflow="hidden"><g transform="translate(-2455 -1191)"><rect x="3169.5" y="1193.5" width="302" height="602" stroke="#000000" stroke-width="4.58333" stroke-miterlimit="8" fill="#0000FF"/><text font-family="Arial,Arial_MSFontService,sans-serif" font-weight="400" font-size="64" transform="matrix(1 0 0 1 2494.49 1880)">-</text><text font-family="Arial,Arial_MSFontService,sans-serif" font-style="italic" font-weight="400" font-size="64" transform="matrix(1 0 0 1 2515.69 1880)">PRF</text><text font-family="Arial,Arial_MSFontService,sans-serif" font-weight="400" font-size="64" transform="matrix(1 0 0 1 2644.02 1880)">/2</text><text font-family="Arial,Arial_MSFontService,sans-serif" font-style="italic" font-weight="400" font-size="64" transform="matrix(1 0 0 1 3509.79 1880)">PRF</text><text font-family="Arial,Arial_MSFontService,sans-serif" font-weight="400" font-size="64" transform="matrix(1 0 0 1 3638.13 1880)">/2</text><text font-family="Arial,Arial_MSFontService,sans-serif" font-weight="400" font-size="64" transform="matrix(1 0 0 1 3077.03 1880)">0</text><text font-family="Arial,Arial_MSFontService,sans-serif" font-weight="400" font-size="64" transform="matrix(1 0 0 1 2802.46 1875)">-</text><text font-family="Arial,Arial_MSFontService,sans-serif" font-weight="400" font-size="64" transform="matrix(1 0 0 1 2823.66 1875)">Fc</text><text font-family="Arial,Arial_MSFontService,sans-serif" font-weight="400" font-size="64" transform="matrix(1 0 0 1 3305.48 1875)">Fc</text><rect x="2720.5" y="1193.5" width="302" height="602" stroke="#000000" stroke-width="4.58333" stroke-miterlimit="8" fill="#FF0000"/><rect x="2871.5" y="1223.5" width="454" height="572" stroke="#000000" stroke-width="4.58333" stroke-miterlimit="8" fill="#00B050"/><path d="M2590.5 1796.5 3598.91 1796.5" stroke="#000000" stroke-width="4.58333" stroke-miterlimit="8" fill="none" fill-rule="evenodd"/><path d="M0 0 0.000360892 45.6244" stroke="#000000" stroke-width="4.58333" stroke-miterlimit="8" fill="none" fill-rule="evenodd" transform="matrix(1 0 0 -1 2590.5 1796.12)"/><path d="M0 0 0.000360892 45.6244" stroke="#000000" stroke-width="4.58333" stroke-miterlimit="8" fill="none" fill-rule="evenodd" transform="matrix(1 0 0 -1 3599.5 1796.12)"/><path d="M0 0 0.000360892 45.6244" stroke="#000000" stroke-width="4.58333" stroke-miterlimit="8" fill="none" fill-rule="evenodd" transform="matrix(1 0 0 -1 3094.5 1796.12)"/><path d="M0 0 0.000360892 45.6244" stroke="#000000" stroke-width="4.58333" stroke-miterlimit="8" fill="none" fill-rule="evenodd" transform="matrix(1 0 0 -1 2842.5 1796.12)"/><path d="M0 0 0.000360892 45.6244" stroke="#000000" stroke-width="4.58333" stroke-miterlimit="8" fill="none" fill-rule="evenodd" transform="matrix(1 0 0 -1 3347.5 1796.12)"/><text font-family="Arial,Arial_MSFontService,sans-serif" font-weight="400" font-size="64" transform="matrix(1 0 0 1 2724.22 1967)">Doppler frequencies (Hz)</text><text fill="#FFFFFF" font-family="Arial,Arial_MSFontService,sans-serif" font-weight="400" font-size="64" transform="matrix(1 0 0 1 2784.71 1342)">R</text><text font-family="Arial,Arial_MSFontService,sans-serif" font-weight="400" font-size="64" transform="matrix(1 0 0 1 3082.15 1342)">G</text><text fill="#FFFFFF" font-family="Arial,Arial_MSFontService,sans-serif" font-weight="400" font-size="64" transform="matrix(1 0 0 1 3394.03 1342)">B</text><rect x="2871.5" y="1278.5" width="151" height="517" stroke="#000000" stroke-width="4.58333" stroke-miterlimit="8" fill="#FFFF00"/><rect x="3175.5" y="1278.5" width="151" height="517" stroke="#000000" stroke-width="4.58333" stroke-miterlimit="8" fill="#00B0F0"/><text font-family="Arial,Arial_MSFontService,sans-serif" font-weight="400" font-size="64" transform="matrix(1 0 0 1 2926.13 1387)">Y</text><text font-family="Arial,Arial_MSFontService,sans-serif" font-weight="400" font-size="55" transform="matrix(1 0 0 1 2872 1455)">(R+G)</text><text font-family="Arial,Arial_MSFontService,sans-serif" font-weight="400" font-size="64" transform="matrix(1 0 0 1 3226.99 1387)">C</text><text font-family="Arial,Arial_MSFontService,sans-serif" font-weight="400" font-size="55" transform="matrix(1 0 0 1 3176 1455)">(G+B)</text></g></svg>